<?xml version="1.0" encoding="UTF-8"?>
<!DOCTYPE svg PUBLIC "-//W3C//DTD SVG 1.1//EN" "http://www.w3.org/Graphics/SVG/1.1/DTD/svg11.dtd">
<svg xmlns="http://www.w3.org/2000/svg" version="1.1" width="516px" height="542px" style="shape-rendering:geometricPrecision; text-rendering:geometricPrecision; image-rendering:optimizeQuality; fill-rule:evenodd; clip-rule:evenodd" xmlns:xlink="http://www.w3.org/1999/xlink">
<g><path style="opacity:1" fill="#42087b" d="M -0.5,-0.5 C 171.5,-0.5 343.5,-0.5 515.5,-0.5C 515.5,180.167 515.5,360.833 515.5,541.5C 343.5,541.5 171.5,541.5 -0.5,541.5C -0.5,360.833 -0.5,180.167 -0.5,-0.5 Z"/></g>
<g><path style="opacity:1" fill="#4f2e73" d="M 259.5,19.5 C 234.833,19.5 210.167,19.5 185.5,19.5C 185.611,18.8826 185.944,18.3826 186.5,18C 210.5,17.3333 234.5,17.3333 258.5,18C 259.056,18.3826 259.389,18.8826 259.5,19.5 Z"/></g>
<g><path style="opacity:1" fill="#fdfcfd" d="M 185.5,19.5 C 210.167,19.5 234.833,19.5 259.5,19.5C 263.785,20.2949 268.119,20.6282 272.5,20.5C 277.353,22.3398 282.353,24.0065 287.5,25.5C 301.142,33.1416 311.808,43.8083 319.5,57.5C 322.425,64.9458 324.759,72.6125 326.5,80.5C 326.392,81.4419 326.059,82.2753 325.5,83C 307.157,87.7506 289.157,92.9172 271.5,98.5C 269.983,98.5106 268.816,99.1772 268,100.5C 266.05,106.693 268.217,110.026 274.5,110.5C 288.861,107.16 303.195,103.66 317.5,100C 319.175,99.0147 320.842,98.1814 322.5,97.5C 323.167,97.1667 323.833,96.8333 324.5,96.5C 327.079,96.0833 329.246,96.75 331,98.5C 331.897,102.152 332.73,105.819 333.5,109.5C 333.248,111.073 332.582,112.406 331.5,113.5C 320.617,115.627 309.95,118.294 299.5,121.5C 297.102,121.259 295.102,121.926 293.5,123.5C 288.824,124.061 284.491,125.394 280.5,127.5C 275.176,128.33 273.342,131.33 275,136.5C 276.167,137.667 277.333,138.833 278.5,140C 285.97,139.743 292.97,137.909 299.5,134.5C 308.936,133.55 317.936,131.217 326.5,127.5C 330.131,126.588 333.797,126.421 337.5,127C 338.422,129.294 339.422,131.461 340.5,133.5C 341.205,136.244 341.205,138.911 340.5,141.5C 337.4,143.133 334.067,144.133 330.5,144.5C 321.34,147.184 312.34,149.851 303.5,152.5C 297.59,153.435 291.757,154.769 286,156.5C 284.358,156.978 283.191,157.978 282.5,159.5C 279.944,163.658 280.944,167.158 285.5,170C 288.913,170.471 291.913,169.638 294.5,167.5C 302.953,165.903 311.286,163.903 319.5,161.5C 321.467,161.261 323.301,161.594 325,162.5C 331.008,158.688 337.508,157.354 344.5,158.5C 345.132,161.102 346.132,163.436 347.5,165.5C 348.468,167.607 348.802,169.941 348.5,172.5C 336.363,175.72 324.363,179.053 312.5,182.5C 308.594,183.61 304.594,184.443 300.5,185C 299.944,185.383 299.611,185.883 299.5,186.5C 295.424,186.121 291.757,187.121 288.5,189.5C 287.112,191.109 286.112,192.942 285.5,195C 285.639,196.301 286.305,197.134 287.5,197.5C 287.5,198.167 287.5,198.833 287.5,199.5C 288.492,201.026 289.992,201.693 292,201.5C 298.434,200.291 304.601,198.625 310.5,196.5C 322.244,193.62 333.911,190.62 345.5,187.5C 347.792,187.244 349.959,187.577 352,188.5C 355.611,199.938 356.444,211.604 354.5,223.5C 354.66,225.199 354.494,226.866 354,228.5C 352.487,232.188 350.987,235.855 349.5,239.5C 348.471,241.517 347.471,243.517 346.5,245.5C 341.901,251.438 336.901,257.105 331.5,262.5C 327.448,264.916 323.448,267.25 319.5,269.5C 317.04,270.878 314.374,271.878 311.5,272.5C 309.734,272.566 308.734,271.732 308.5,270C 312.512,267.217 316.346,264.051 320,260.5C 329.349,247.351 328.515,235.017 317.5,223.5C 315.882,222.549 314.549,221.216 313.5,219.5C 312.984,221.733 313.984,223.4 316.5,224.5C 324.96,242.668 320.96,257.334 304.5,268.5C 303.504,284.325 303.17,300.325 303.5,316.5C 307.167,316.5 310.833,316.5 314.5,316.5C 317.902,316.342 321.236,316.676 324.5,317.5C 323.34,319.203 324.007,319.869 326.5,319.5C 326.928,322.246 328.594,323.913 331.5,324.5C 332.66,326.146 333.327,327.979 333.5,330C 332.743,333.444 331.743,336.944 330.5,340.5C 329.599,342.727 327.933,343.727 325.5,343.5C 302.145,343.782 278.811,343.448 255.5,342.5C 249.553,339.378 247.22,334.378 248.5,327.5C 248.893,325.716 249.559,324.05 250.5,322.5C 252.34,320.832 254.34,319.332 256.5,318C 264.578,317.802 272.578,317.302 280.5,316.5C 281.661,303.006 281.827,289.34 281,275.5C 276.378,273.731 271.544,272.731 266.5,272.5C 261.566,271.031 256.9,269.031 252.5,266.5C 247.848,263.179 243.515,259.513 239.5,255.5C 239.5,254.833 239.167,254.5 238.5,254.5C 217.671,253.668 196.671,253.168 175.5,253C 167.908,247.492 167.575,241.492 174.5,235C 190.005,234.831 205.339,234.331 220.5,233.5C 220.5,233.167 220.5,232.833 220.5,232.5C 223.812,232.851 226.145,231.518 227.5,228.5C 231.636,224.933 232.47,220.6 230,215.5C 228.471,214.271 227.304,212.771 226.5,211C 224.956,210.71 223.623,210.044 222.5,209C 192.833,208.667 163.167,208.333 133.5,208C 131.308,207.074 129.308,205.907 127.5,204.5C 125.869,199.88 126.202,195.546 128.5,191.5C 131.022,191.122 133.355,190.289 135.5,189C 158.337,188.832 181.004,188.332 203.5,187.5C 212.064,182.922 213.73,176.422 208.5,168C 206.725,166.561 204.725,165.561 202.5,165C 193.506,164.5 184.506,164.334 175.5,164.5C 170.304,162.467 164.971,161.634 159.5,162C 158.884,159.821 157.717,157.988 156,156.5C 155.503,153.854 155.336,151.187 155.5,148.5C 156.716,146.549 158.382,145.049 160.5,144C 170.5,143.667 180.5,143.333 190.5,143C 191.056,142.617 191.389,142.117 191.5,141.5C 195.079,141.089 197.246,139.089 198,135.5C 199.493,128.966 197.327,124.133 191.5,121C 186.177,120.501 180.844,120.334 175.5,120.5C 166.671,115.373 165.338,108.706 171.5,100.5C 172.167,100.5 172.5,100.167 172.5,99.5C 177.833,99.0668 183.166,98.5668 188.5,98C 189.381,97.2917 190.047,96.4584 190.5,95.5C 191.167,95.5 191.5,95.1667 191.5,94.5C 193.828,92.8339 194.828,90.5005 194.5,87.5C 194.383,84.9503 193.383,82.9503 191.5,81.5C 189.458,79.1703 186.792,78.0036 183.5,78C 171.167,77.6667 158.833,77.3333 146.5,77C 145.756,75.9614 144.756,75.4614 143.5,75.5C 140.721,71.9814 139.888,67.9814 141,63.5C 142.406,60.5914 144.572,58.5914 147.5,57.5C 166.41,57.174 185.243,57.5073 204,58.5C 205.697,56.3679 207.864,55.0346 210.5,54.5C 211.227,50.6459 211.56,46.8125 211.5,43C 210.372,38.8696 207.705,36.5363 203.5,36C 197.843,35.5006 192.176,35.3339 186.5,35.5C 184.427,34.7005 182.76,33.3671 181.5,31.5C 180.742,26.7291 182.075,22.7291 185.5,19.5 Z"/></g>
<g><path style="opacity:1" fill="#411c6c" d="M 272.5,20.5 C 275.518,20.3354 278.518,20.502 281.5,21C 284.177,21.8136 286.177,23.3136 287.5,25.5C 282.353,24.0065 277.353,22.3398 272.5,20.5 Z"/></g>
<g><path style="opacity:1" fill="#421471" d="M 287.5,25.5 C 292.673,25.6713 297.006,27.6713 300.5,31.5C 303.065,31.3996 305.732,31.8996 308.5,33C 309.924,35.2178 311.924,36.7178 314.5,37.5C 315.641,38.4255 315.641,39.2588 314.5,40C 313.167,40 311.833,40 310.5,40C 313.334,44.508 316.168,49.008 319,53.5C 319.49,54.7932 319.657,56.1266 319.5,57.5C 311.808,43.8083 301.142,33.1416 287.5,25.5 Z"/></g>
<g><path style="opacity:1" fill="#4b286f" d="M 181.5,31.5 C 182.76,33.3671 184.427,34.7005 186.5,35.5C 191.651,36.3267 196.984,36.8267 202.5,37C 203.056,37.3826 203.389,37.8826 203.5,38.5C 197.491,38.6662 191.491,38.4995 185.5,38C 183.266,36.3621 181.933,34.1955 181.5,31.5 Z"/></g>
<g><path style="opacity:1" fill="#eaddf2" d="M 186.5,35.5 C 192.176,35.3339 197.843,35.5006 203.5,36C 207.705,36.5363 210.372,38.8696 211.5,43C 211.56,46.8125 211.227,50.6459 210.5,54.5C 207.864,55.0346 205.697,56.3679 204,58.5C 185.243,57.5073 166.41,57.174 147.5,57.5C 147.5,57.1667 147.5,56.8333 147.5,56.5C 166.17,56.6666 184.836,56.4999 203.5,56C 205.324,55.34 206.657,54.1733 207.5,52.5C 208.117,52.3893 208.617,52.056 209,51.5C 210.461,46.2836 209.295,41.9503 205.5,38.5C 204.833,38.5 204.167,38.5 203.5,38.5C 203.389,37.8826 203.056,37.3826 202.5,37C 196.984,36.8267 191.651,36.3267 186.5,35.5 Z"/></g>
<g><path style="opacity:1" fill="#422263" d="M 205.5,38.5 C 209.295,41.9503 210.461,46.2836 209,51.5C 208.617,52.056 208.117,52.3893 207.5,52.5C 207.443,50.1155 207.777,47.7822 208.5,45.5C 207.023,43.361 206.023,41.0277 205.5,38.5 Z"/></g>
<g><path style="opacity:1" fill="#410d72" d="M 202.5,54.5 C 184.167,55.1667 165.833,55.8333 147.5,56.5C 147.5,56.8333 147.5,57.1667 147.5,57.5C 144.572,58.5914 142.406,60.5914 141,63.5C 139.888,67.9814 140.721,71.9814 143.5,75.5C 140.5,75.8333 139.167,74.5 139.5,71.5C 138.325,71.719 137.325,71.3857 136.5,70.5C 139.167,66.8333 139.167,63.1667 136.5,59.5C 139.854,58.9013 142.854,57.568 145.5,55.5C 144.833,54.5 144.167,53.5 143.5,52.5C 147.98,51.6838 152.48,51.0171 157,50.5C 166.144,51.2659 175.31,51.7659 184.5,52C 181.447,52.1786 178.447,52.6786 175.5,53.5C 184.475,54.4982 193.475,54.8315 202.5,54.5 Z"/></g>
<g><path style="opacity:1" fill="#3f146e" d="M 133.5,69.5 C 132.917,58.8984 127.584,54.8984 117.5,57.5C 116.833,57.5 116.5,57.8333 116.5,58.5C 115.078,59.925 113.411,60.925 111.5,61.5C 111.5,59.1667 111.5,56.8333 111.5,54.5C 113.262,54.3573 114.929,54.6906 116.5,55.5C 124.104,52.2144 129.937,54.2144 134,61.5C 134.801,64.367 134.634,67.0336 133.5,69.5 Z"/></g>
<g><path style="opacity:1" fill="#351556" d="M 207.5,52.5 C 206.657,54.1733 205.324,55.34 203.5,56C 184.836,56.4999 166.17,56.6666 147.5,56.5C 165.833,55.8333 184.167,55.1667 202.5,54.5C 204.167,53.8333 205.833,53.1667 207.5,52.5 Z"/></g>
<g><path style="opacity:1" fill="#fcfcfa" d="M 117.5,57.5 C 119.527,57.3379 121.527,57.5045 123.5,58C 124.365,59.854 125.365,61.6874 126.5,63.5C 127.428,61.6652 128.594,61.3318 130,62.5C 132.635,68.2681 131.135,72.4348 125.5,75C 122.571,75.7772 119.737,75.6105 117,74.5C 115.752,72.2106 114.585,69.8773 113.5,67.5C 114.35,64.4273 115.35,61.4273 116.5,58.5C 116.5,57.8333 116.833,57.5 117.5,57.5 Z"/></g>
<g><path style="opacity:1" fill="#e7dbed" d="M 117.5,57.5 C 127.584,54.8984 132.917,58.8984 133.5,69.5C 132.121,72.3859 130.121,74.8859 127.5,77C 124.518,77.498 121.518,77.6646 118.5,77.5C 112.066,74.072 109.733,68.7386 111.5,61.5C 113.411,60.925 115.078,59.925 116.5,58.5C 115.35,61.4273 114.35,64.4273 113.5,67.5C 114.585,69.8773 115.752,72.2106 117,74.5C 119.737,75.6105 122.571,75.7772 125.5,75C 131.135,72.4348 132.635,68.2681 130,62.5C 128.594,61.3318 127.428,61.6652 126.5,63.5C 125.365,61.6874 124.365,59.854 123.5,58C 121.527,57.5045 119.527,57.3379 117.5,57.5 Z"/></g>
<g><path style="opacity:1" fill="#431c6e" d="M 133.5,69.5 C 133.986,76.1829 130.819,79.5163 124,79.5C 121.779,79.6068 119.946,78.9402 118.5,77.5C 121.518,77.6646 124.518,77.498 127.5,77C 130.121,74.8859 132.121,72.3859 133.5,69.5 Z"/></g>
<g><path style="opacity:1" fill="#492a69" d="M 143.5,75.5 C 144.756,75.4614 145.756,75.9614 146.5,77C 158.833,77.3333 171.167,77.6667 183.5,78C 186.792,78.0036 189.458,79.1703 191.5,81.5C 176.607,79.8016 161.607,78.9682 146.5,79C 144.937,78.2411 143.937,77.0744 143.5,75.5 Z"/></g>
<g><path style="opacity:1" fill="#452664" d="M 191.5,81.5 C 193.383,82.9503 194.383,84.9503 194.5,87.5C 194.828,90.5005 193.828,92.8339 191.5,94.5C 192.833,90.1667 192.833,85.8333 191.5,81.5 Z"/></g>
<g><path style="opacity:1" fill="#411172" d="M 319.5,57.5 C 320.583,57.5394 321.583,57.8728 322.5,58.5C 323.167,60.8333 323.833,63.1667 324.5,65.5C 325.524,66.8532 326.857,67.5198 328.5,67.5C 328.823,73.6228 328.157,79.6228 326.5,85.5C 325.226,88.4744 323.226,89.1411 320.5,87.5C 314.966,88.9103 314.632,89.9103 319.5,90.5C 319.52,92.143 318.853,93.4763 317.5,94.5C 319.738,94.2771 322.072,94.6105 324.5,95.5C 324.5,95.8333 324.5,96.1667 324.5,96.5C 323.833,96.8333 323.167,97.1667 322.5,97.5C 318.968,97.31 315.635,97.9767 312.5,99.5C 312.5,98.5 312.5,97.5 312.5,96.5C 301.043,96.4818 301.376,95.3152 313.5,93C 314.517,91.9505 314.684,90.7839 314,89.5C 304.591,91.7257 295.091,93.7257 285.5,95.5C 281.21,98.0911 276.543,99.0911 271.5,98.5C 289.157,92.9172 307.157,87.7506 325.5,83C 326.059,82.2753 326.392,81.4419 326.5,80.5C 324.759,72.6125 322.425,64.9458 319.5,57.5 Z"/></g>
<g><path style="opacity:1" fill="#41087a" d="M 312.5,99.5 C 306.384,99.2852 300.717,100.785 295.5,104C 292.167,104.333 288.833,104.667 285.5,105C 282.862,107.547 279.695,108.713 276,108.5C 273.648,108.695 271.648,108.028 270,106.5C 269.288,103.562 269.788,100.896 271.5,98.5C 276.543,99.0911 281.21,98.0911 285.5,95.5C 295.091,93.7257 304.591,91.7257 314,89.5C 314.684,90.7839 314.517,91.9505 313.5,93C 301.376,95.3152 301.043,96.4818 312.5,96.5C 312.5,97.5 312.5,98.5 312.5,99.5 Z"/></g>
<g><path style="opacity:1" fill="#421b6a" d="M 190.5,95.5 C 190.047,96.4584 189.381,97.2917 188.5,98C 183.166,98.5668 177.833,99.0668 172.5,99.5C 172.414,98.5041 172.748,97.6708 173.5,97C 179.18,96.5545 184.846,96.0545 190.5,95.5 Z"/></g>
<g><path style="opacity:1" fill="#fbfafa" d="M 154.5,100.5 C 155.167,100.5 155.833,100.5 156.5,100.5C 161.702,104.723 162.702,109.723 159.5,115.5C 158.5,116.167 157.5,116.833 156.5,117.5C 148.849,119.554 141.682,118.554 135,114.5C 132.742,109.699 133.576,105.533 137.5,102C 143.072,100.649 148.738,100.149 154.5,100.5 Z"/></g>
<g><path style="opacity:1" fill="#3c1a60" d="M 156.5,100.5 C 155.833,100.5 155.167,100.5 154.5,100.5C 149.015,99.3483 143.349,99.1816 137.5,100C 135.144,101.914 133.144,104.081 131.5,106.5C 131.372,102.796 133.038,100.296 136.5,99C 142.833,98.3333 149.167,98.3333 155.5,99C 156.056,99.3826 156.389,99.8826 156.5,100.5 Z"/></g>
<g><path style="opacity:1" fill="#3e1966" d="M 322.5,97.5 C 320.842,98.1814 319.175,99.0147 317.5,100C 303.195,103.66 288.861,107.16 274.5,110.5C 268.217,110.026 266.05,106.693 268,100.5C 268.816,99.1772 269.983,98.5106 271.5,98.5C 269.788,100.896 269.288,103.562 270,106.5C 271.648,108.028 273.648,108.695 276,108.5C 279.695,108.713 282.862,107.547 285.5,105C 288.833,104.667 292.167,104.333 295.5,104C 300.717,100.785 306.384,99.2852 312.5,99.5C 315.635,97.9767 318.968,97.31 322.5,97.5 Z"/></g>
<g><path style="opacity:1" fill="#3e1a62" d="M 324.5,96.5 C 324.5,96.1667 324.5,95.8333 324.5,95.5C 327.972,94.9629 330.805,95.9629 333,98.5C 333.998,103.143 334.332,107.81 334,112.5C 333.329,113.252 332.496,113.586 331.5,113.5C 332.582,112.406 333.248,111.073 333.5,109.5C 332.73,105.819 331.897,102.152 331,98.5C 329.246,96.75 327.079,96.0833 324.5,96.5 Z"/></g>
<g><path style="opacity:1" fill="#3f116f" d="M 156.5,100.5 C 157.873,100.343 159.207,100.51 160.5,101C 161.1,104.436 163.1,106.269 166.5,106.5C 166.5,104.833 166.5,103.167 166.5,101.5C 168.216,101.371 169.883,101.038 171.5,100.5C 165.338,108.706 166.671,115.373 175.5,120.5C 180.911,121.062 186.244,122.062 191.5,123.5C 184.169,123.048 176.835,122.548 169.5,122C 167.193,118.884 165.86,115.384 165.5,111.5C 164.5,111.5 163.5,111.5 162.5,111.5C 162.5,113.5 162.5,115.5 162.5,117.5C 161.5,117.5 160.5,117.5 159.5,117.5C 159.5,116.833 159.5,116.167 159.5,115.5C 162.702,109.723 161.702,104.723 156.5,100.5 Z"/></g>
<g><path style="opacity:1" fill="#e5d6ee" d="M 154.5,100.5 C 148.738,100.149 143.072,100.649 137.5,102C 133.576,105.533 132.742,109.699 135,114.5C 141.682,118.554 148.849,119.554 156.5,117.5C 150.033,119.98 143.366,120.146 136.5,118C 133.051,114.935 131.384,111.102 131.5,106.5C 133.144,104.081 135.144,101.914 137.5,100C 143.349,99.1816 149.015,99.3483 154.5,100.5 Z"/></g>
<g><path style="opacity:1" fill="#3f1c65" d="M 131.5,106.5 C 131.384,111.102 133.051,114.935 136.5,118C 143.366,120.146 150.033,119.98 156.5,117.5C 157.5,116.833 158.5,116.167 159.5,115.5C 159.5,116.167 159.5,116.833 159.5,117.5C 159.119,118.931 158.119,119.764 156.5,120C 149.629,120.778 142.795,120.612 136,119.5C 130.748,116.33 129.248,111.997 131.5,106.5 Z"/></g>
<g><path style="opacity:1" fill="#7a5e95" d="M 299.5,121.5 C 297.898,123.074 295.898,123.741 293.5,123.5C 295.102,121.926 297.102,121.259 299.5,121.5 Z"/></g>
<g><path style="opacity:1" fill="#40156d" d="M 331.5,113.5 C 331.047,114.458 330.381,115.292 329.5,116C 324.5,117 319.5,118 314.5,119C 308.54,122.264 302.207,124.431 295.5,125.5C 296.025,126.192 296.692,126.692 297.5,127C 291.888,128.581 286.221,128.747 280.5,127.5C 284.491,125.394 288.824,124.061 293.5,123.5C 295.898,123.741 297.898,123.074 299.5,121.5C 309.95,118.294 320.617,115.627 331.5,113.5 Z"/></g>
<g><path style="opacity:1" fill="#421b68" d="M 340.5,133.5 C 339.422,131.461 338.422,129.294 337.5,127C 333.797,126.421 330.131,126.588 326.5,127.5C 327.347,126.034 328.68,125.2 330.5,125C 333.868,124.457 337.201,124.624 340.5,125.5C 340.5,128.167 340.5,130.833 340.5,133.5 Z"/></g>
<g><path style="opacity:1" fill="#3d1a63" d="M 175.5,120.5 C 180.844,120.334 186.177,120.501 191.5,121C 197.327,124.133 199.493,128.966 198,135.5C 197.246,139.089 195.079,141.089 191.5,141.5C 193.907,138.275 195.574,134.608 196.5,130.5C 196.52,126.846 194.853,124.512 191.5,123.5C 186.244,122.062 180.911,121.062 175.5,120.5 Z"/></g>
<g><path style="opacity:1" fill="#421f67" d="M 280.5,127.5 C 279.542,128.962 278.376,130.295 277,131.5C 276.506,133.134 276.34,134.801 276.5,136.5C 279.302,136.982 282.135,137.316 285,137.5C 289.706,136.218 294.539,135.218 299.5,134.5C 292.97,137.909 285.97,139.743 278.5,140C 277.333,138.833 276.167,137.667 275,136.5C 273.342,131.33 275.176,128.33 280.5,127.5 Z"/></g>
<g><path style="opacity:1" fill="#43196c" d="M 191.5,141.5 C 191.389,142.117 191.056,142.617 190.5,143C 180.5,143.333 170.5,143.667 160.5,144C 158.382,145.049 156.716,146.549 155.5,148.5C 154.833,149.167 154.167,149.833 153.5,150.5C 153.993,148.194 154.326,145.861 154.5,143.5C 166.732,141.715 179.065,141.048 191.5,141.5 Z"/></g>
<g><path style="opacity:1" fill="#43156b" d="M 123.5,143.5 C 129.987,142.346 136.654,142.179 143.5,143C 144.646,143.645 145.646,144.478 146.5,145.5C 147.167,144.833 147.833,144.167 148.5,143.5C 149.659,147.122 149.825,150.789 149,154.5C 148.617,155.056 148.117,155.389 147.5,155.5C 148.332,149.655 145.999,145.821 140.5,144C 134.843,143.501 129.176,143.334 123.5,143.5 Z"/></g>
<g><path style="opacity:1" fill="#fdfdfb" d="M 120.5,144.5 C 128.354,143.968 136.02,144.802 143.5,147C 144.905,148.977 145.905,151.143 146.5,153.5C 145.005,155.99 144.005,158.657 143.5,161.5C 135.523,162.49 127.523,162.657 119.5,162C 114.979,156.63 114.646,151.13 118.5,145.5C 119.167,145.167 119.833,144.833 120.5,144.5 Z"/></g>
<g><path style="opacity:1" fill="#e9def0" d="M 120.5,144.5 C 120.5,144.167 120.5,143.833 120.5,143.5C 121.5,143.5 122.5,143.5 123.5,143.5C 129.176,143.334 134.843,143.501 140.5,144C 145.999,145.821 148.332,149.655 147.5,155.5C 147.5,156.167 147.5,156.833 147.5,157.5C 146.527,159.139 145.194,160.473 143.5,161.5C 144.005,158.657 145.005,155.99 146.5,153.5C 145.905,151.143 144.905,148.977 143.5,147C 136.02,144.802 128.354,143.968 120.5,144.5 Z"/></g>
<g><path style="opacity:1" fill="#421c69" d="M 330.5,144.5 C 328.229,145.552 326.229,147.052 324.5,149C 317.372,149.703 310.372,150.869 303.5,152.5C 312.34,149.851 321.34,147.184 330.5,144.5 Z"/></g>
<g><path style="opacity:1" fill="#43206a" d="M 303.5,152.5 C 302.192,153.232 300.858,154.066 299.5,155C 293.633,156.068 287.966,157.568 282.5,159.5C 283.191,157.978 284.358,156.978 286,156.5C 291.757,154.769 297.59,153.435 303.5,152.5 Z"/></g>
<g><path style="opacity:1" fill="#3a1663" d="M 338.5,155.5 C 332.446,157.732 326.113,159.398 319.5,160.5C 319.881,159.069 320.881,158.236 322.5,158C 327.863,157.273 333.197,156.439 338.5,155.5 Z"/></g>
<g><path style="opacity:1" fill="#e7daef" d="M 338.5,155.5 C 339.167,155.5 339.833,155.5 340.5,155.5C 342.722,155.178 344.556,155.845 346,157.5C 346.822,160.117 347.322,162.784 347.5,165.5C 346.132,163.436 345.132,161.102 344.5,158.5C 337.508,157.354 331.008,158.688 325,162.5C 323.301,161.594 321.467,161.261 319.5,161.5C 319.5,161.167 319.5,160.833 319.5,160.5C 326.113,159.398 332.446,157.732 338.5,155.5 Z"/></g>
<g><path style="opacity:1" fill="#f1e4f6" d="M 118.5,145.5 C 114.646,151.13 114.979,156.63 119.5,162C 127.523,162.657 135.523,162.49 143.5,161.5C 143.389,162.117 143.056,162.617 142.5,163C 134.5,163.667 126.5,163.667 118.5,163C 117.956,162.283 117.289,161.783 116.5,161.5C 113.799,157.597 112.966,153.263 114,148.5C 115.129,146.859 116.629,145.859 118.5,145.5 Z"/></g>
<g><path style="opacity:1" fill="#eadef1" d="M 155.5,148.5 C 155.336,151.187 155.503,153.854 156,156.5C 157.717,157.988 158.884,159.821 159.5,162C 164.971,161.634 170.304,162.467 175.5,164.5C 170.156,164.666 164.823,164.499 159.5,164C 154.634,160.769 152.634,156.269 153.5,150.5C 154.167,149.833 154.833,149.167 155.5,148.5 Z"/></g>
<g><path style="opacity:1" fill="#421b67" d="M 120.5,143.5 C 120.5,143.833 120.5,144.167 120.5,144.5C 119.833,144.833 119.167,145.167 118.5,145.5C 116.629,145.859 115.129,146.859 114,148.5C 112.966,153.263 113.799,157.597 116.5,161.5C 114.712,161.785 113.045,161.452 111.5,160.5C 112.274,156.221 112.774,151.887 113,147.5C 114.612,144.521 117.112,143.188 120.5,143.5 Z"/></g>
<g><path style="opacity:1" fill="#4d2775" d="M 147.5,157.5 C 147.167,160.167 146.833,162.833 146.5,165.5C 136.785,166.353 127.119,165.853 117.5,164C 116.748,163.329 116.414,162.496 116.5,161.5C 117.289,161.783 117.956,162.283 118.5,163C 126.5,163.667 134.5,163.667 142.5,163C 143.056,162.617 143.389,162.117 143.5,161.5C 145.194,160.473 146.527,159.139 147.5,157.5 Z"/></g>
<g><path style="opacity:1" fill="#411d65" d="M 319.5,160.5 C 319.5,160.833 319.5,161.167 319.5,161.5C 311.286,163.903 302.953,165.903 294.5,167.5C 302.34,163.767 310.673,161.434 319.5,160.5 Z"/></g>
<g><path style="opacity:1" fill="#3e215f" d="M 282.5,159.5 C 282.377,168.021 286.377,170.687 294.5,167.5C 291.913,169.638 288.913,170.471 285.5,170C 280.944,167.158 279.944,163.658 282.5,159.5 Z"/></g>
<g><path style="opacity:1" fill="#432067" d="M 340.5,155.5 C 342.56,154.189 344.726,154.189 347,155.5C 349.35,161.305 350.85,167.305 351.5,173.5C 341.762,176.023 332.095,178.856 322.5,182C 319.183,182.498 315.85,182.665 312.5,182.5C 324.363,179.053 336.363,175.72 348.5,172.5C 348.802,169.941 348.468,167.607 347.5,165.5C 347.322,162.784 346.822,160.117 346,157.5C 344.556,155.845 342.722,155.178 340.5,155.5 Z"/></g>
<g><path style="opacity:1" fill="#462768" d="M 312.5,182.5 C 308.597,184.898 304.264,186.231 299.5,186.5C 299.611,185.883 299.944,185.383 300.5,185C 304.594,184.443 308.594,183.61 312.5,182.5 Z"/></g>
<g><path style="opacity:1" fill="#3f176d" d="M 153.5,150.5 C 152.634,156.269 154.634,160.769 159.5,164C 164.823,164.499 170.156,164.666 175.5,164.5C 184.506,164.334 193.506,164.5 202.5,165C 204.725,165.561 206.725,166.561 208.5,168C 213.73,176.422 212.064,182.922 203.5,187.5C 180.164,187.333 156.831,187.5 133.5,188C 131.416,188.697 129.749,189.864 128.5,191.5C 126.202,195.546 125.869,199.88 127.5,204.5C 126.5,204.5 125.5,204.5 124.5,204.5C 124.5,200.167 124.5,195.833 124.5,191.5C 123.5,191.5 122.5,191.5 121.5,191.5C 122.59,194.985 122.59,198.319 121.5,201.5C 121.947,195.887 120.28,191.22 116.5,187.5C 120.083,187.806 123.25,186.806 126,184.5C 127.726,185.648 127.559,186.815 125.5,188C 125.833,188.167 126.167,188.333 126.5,188.5C 129.242,186.573 132.075,184.906 135,183.5C 146.82,184.711 158.987,185.378 171.5,185.5C 181.833,185.333 192.167,185.167 202.5,185C 204.24,183.306 206.24,182.139 208.5,181.5C 208.665,178.482 208.498,175.482 208,172.5C 206.644,171.62 205.144,171.286 203.5,171.5C 203.714,169.856 203.38,168.356 202.5,167C 187.5,166.667 172.5,166.333 157.5,166C 156.777,163.28 155.277,161.113 153,159.5C 152.195,156.304 152.362,153.304 153.5,150.5 Z"/></g>
<g><path style="opacity:1" fill="#401b67" d="M 116.5,187.5 C 120.28,191.22 121.947,195.887 121.5,201.5C 120.455,204.545 118.455,206.545 115.5,207.5C 120.271,201.858 120.604,196.025 116.5,190C 104.371,184.555 98.3706,188.389 98.5,201.5C 97.2227,200.306 96.5561,198.64 96.5,196.5C 97.5039,189.338 101.671,186.004 109,186.5C 111.551,186.625 114.051,186.958 116.5,187.5 Z"/></g>
<g><path style="opacity:1" fill="#f6e6fd" d="M 203.5,187.5 C 181.004,188.332 158.337,188.832 135.5,189C 133.355,190.289 131.022,191.122 128.5,191.5C 129.749,189.864 131.416,188.697 133.5,188C 156.831,187.5 180.164,187.333 203.5,187.5 Z"/></g>
<g><path style="opacity:1" fill="#411e66" d="M 299.5,186.5 C 295.629,187.888 291.962,189.721 288.5,192C 287.594,193.699 287.261,195.533 287.5,197.5C 286.305,197.134 285.639,196.301 285.5,195C 286.112,192.942 287.112,191.109 288.5,189.5C 291.757,187.121 295.424,186.121 299.5,186.5 Z"/></g>
<g><path style="opacity:1" fill="#f8f5f8" d="M 115.5,207.5 C 108.887,209.775 103.221,208.442 98.5,203.5C 98.5,202.833 98.5,202.167 98.5,201.5C 98.3706,188.389 104.371,184.555 116.5,190C 120.604,196.025 120.271,201.858 115.5,207.5 Z"/></g>
<g><path style="opacity:1" fill="#401b66" d="M 310.5,196.5 C 304.601,198.625 298.434,200.291 292,201.5C 289.992,201.693 288.492,201.026 287.5,199.5C 295.053,198.396 302.72,197.396 310.5,196.5 Z"/></g>
<g><path style="opacity:1" fill="#e5d2ee" d="M 353.5,186.5 C 356.918,198.887 357.251,211.221 354.5,223.5C 356.444,211.604 355.611,199.938 352,188.5C 349.959,187.577 347.792,187.244 345.5,187.5C 347.937,185.561 350.603,185.227 353.5,186.5 Z"/></g>
<g><path style="opacity:1" fill="#3f1968" d="M 98.5,203.5 C 103.221,208.442 108.887,209.775 115.5,207.5C 115.586,208.496 115.252,209.329 114.5,210C 107.039,212.392 101.706,210.225 98.5,203.5 Z"/></g>
<g><path style="opacity:1" fill="#401a67" d="M 127.5,204.5 C 129.308,205.907 131.308,207.074 133.5,208C 163.167,208.333 192.833,208.667 222.5,209C 223.623,210.044 224.956,210.71 226.5,211C 227.304,212.771 228.471,214.271 230,215.5C 232.47,220.6 231.636,224.933 227.5,228.5C 228.312,226.257 228.979,223.924 229.5,221.5C 229.333,220.167 229.167,218.833 229,217.5C 226.247,215.209 223.413,213.042 220.5,211C 191.5,210.667 162.5,210.333 133.5,210C 130.289,209.268 128.289,207.434 127.5,204.5 Z"/></g>
<g><path style="opacity:1" fill="#3f1768" d="M 353.5,186.5 C 354.496,186.414 355.329,186.748 356,187.5C 359.256,201.472 359.256,215.472 356,229.5C 354.219,232.333 352.719,235.333 351.5,238.5C 351.043,239.298 350.376,239.631 349.5,239.5C 350.987,235.855 352.487,232.188 354,228.5C 354.494,226.866 354.66,225.199 354.5,223.5C 357.251,211.221 356.918,198.887 353.5,186.5 Z"/></g>
<g><path style="opacity:1" fill="#747177" d="M 317.5,223.5 C 316.833,223.5 316.5,223.833 316.5,224.5C 313.984,223.4 312.984,221.733 313.5,219.5C 314.549,221.216 315.882,222.549 317.5,223.5 Z"/></g>
<g><path style="opacity:1" fill="#3a1862" d="M 220.5,232.5 C 220.5,232.833 220.5,233.167 220.5,233.5C 204.83,233.333 189.163,233.5 173.5,234C 168.655,237.194 166.655,241.694 167.5,247.5C 166.776,243.736 166.442,239.903 166.5,236C 168.774,235.53 170.774,234.53 172.5,233C 188.497,232.5 204.497,232.333 220.5,232.5 Z"/></g>
<g><path style="opacity:1" fill="#d6c4e3" d="M 220.5,233.5 C 205.339,234.331 190.005,234.831 174.5,235C 167.575,241.492 167.908,247.492 175.5,253C 196.671,253.168 217.671,253.668 238.5,254.5C 216.831,254.667 195.164,254.5 173.5,254C 171.266,251.937 169.266,249.771 167.5,247.5C 166.655,241.694 168.655,237.194 173.5,234C 189.163,233.5 204.83,233.333 220.5,233.5 Z"/></g>
<g><path style="opacity:1" fill="#341655" d="M 167.5,247.5 C 169.266,249.771 171.266,251.937 173.5,254C 195.164,254.5 216.831,254.667 238.5,254.5C 239.167,254.5 239.5,254.833 239.5,255.5C 216.824,255.833 194.157,255.5 171.5,254.5C 169.053,252.847 167.72,250.513 167.5,247.5 Z"/></g>
<g><path style="opacity:1" fill="#411d6b" d="M 346.5,245.5 C 346.762,246.978 346.429,248.311 345.5,249.5C 342.755,252.079 340.589,255.079 339,258.5C 336.36,259.656 333.86,260.989 331.5,262.5C 336.901,257.105 341.901,251.438 346.5,245.5 Z"/></g>
<g><path style="opacity:1" fill="#3a1865" d="M 239.5,255.5 C 243.515,259.513 247.848,263.179 252.5,266.5C 249.521,265.346 246.521,264.18 243.5,263C 241.161,261.011 239.827,258.511 239.5,255.5 Z"/></g>
<g><path style="opacity:1" fill="#411c69" d="M 317.5,223.5 C 328.515,235.017 329.349,247.351 320,260.5C 316.346,264.051 312.512,267.217 308.5,270C 308.734,271.732 309.734,272.566 311.5,272.5C 314.374,271.878 317.04,270.878 319.5,269.5C 316.848,273.314 313.181,274.481 308.5,273C 307.91,271.491 307.244,269.991 306.5,268.5C 305.334,283.489 305.167,298.489 306,313.5C 308.607,314.123 311.107,314.79 313.5,315.5C 310.5,315.5 307.5,315.5 304.5,315.5C 304.5,299.833 304.5,284.167 304.5,268.5C 320.96,257.334 324.96,242.668 316.5,224.5C 316.5,223.833 316.833,223.5 317.5,223.5 Z"/></g>
<g><path style="opacity:1" fill="#3a1666" d="M 252.5,266.5 C 256.9,269.031 261.566,271.031 266.5,272.5C 266.5,272.833 266.5,273.167 266.5,273.5C 263.753,273.813 261.086,273.48 258.5,272.5C 257.221,270.854 255.555,269.687 253.5,269C 252.748,268.329 252.414,267.496 252.5,266.5 Z"/></g>
<g><path style="opacity:1" fill="#431c6c" d="M 266.5,273.5 C 270.991,274.64 275.491,275.64 280,276.5C 280.5,289.829 280.667,303.163 280.5,316.5C 272.578,317.302 264.578,317.802 256.5,318C 254.34,319.332 252.34,320.832 250.5,322.5C 250.338,320.473 250.505,318.473 251,316.5C 253.498,317.598 255.998,317.432 258.5,316C 265.158,315.5 271.825,315.334 278.5,315.5C 278.5,302.5 278.5,289.5 278.5,276.5C 275.291,276.589 272.125,276.256 269,275.5C 267.624,275.316 266.791,274.649 266.5,273.5 Z"/></g>
<g><path style="opacity:1" fill="#eedbf9" d="M 266.5,273.5 C 266.5,273.167 266.5,272.833 266.5,272.5C 271.544,272.731 276.378,273.731 281,275.5C 281.827,289.34 281.661,303.006 280.5,316.5C 280.667,303.163 280.5,289.829 280,276.5C 275.491,275.64 270.991,274.64 266.5,273.5 Z"/></g>
<g><path style="opacity:1" fill="#573470" d="M 304.5,268.5 C 304.5,284.167 304.5,299.833 304.5,315.5C 307.5,315.5 310.5,315.5 313.5,315.5C 314.167,315.5 314.5,315.833 314.5,316.5C 310.833,316.5 307.167,316.5 303.5,316.5C 303.17,300.325 303.504,284.325 304.5,268.5 Z"/></g>
<g><path style="opacity:1" fill="#e7daee" d="M 324.5,317.5 C 326.284,317.893 327.95,318.559 329.5,319.5C 336.962,326.325 337.295,333.325 330.5,340.5C 331.743,336.944 332.743,333.444 333.5,330C 333.327,327.979 332.66,326.146 331.5,324.5C 328.594,323.913 326.928,322.246 326.5,319.5C 324.007,319.869 323.34,319.203 324.5,317.5 Z"/></g>
<g><path style="opacity:1" fill="#552e7e" d="M 138.5,346.5 C 161.354,345.203 184.354,345.203 207.5,346.5C 208.167,347.167 208.833,347.833 209.5,348.5C 208.167,348.5 206.833,348.5 205.5,348.5C 204.737,347.732 203.737,347.232 202.5,347C 181.169,346.5 159.836,346.333 138.5,346.5 Z"/></g>
<g><path style="opacity:1" fill="#451f6b" d="M 329.5,319.5 C 334.467,322.111 337.8,325.778 339.5,330.5C 337.73,331.82 337.397,333.32 338.5,335C 337.552,335.483 336.552,335.649 335.5,335.5C 333.651,340.848 329.984,344.348 324.5,346C 302.5,346.667 280.5,346.667 258.5,346C 248.675,343.072 245.342,336.906 248.5,327.5C 247.22,334.378 249.553,339.378 255.5,342.5C 255.918,343.222 256.584,343.722 257.5,344C 280.337,344.83 303.004,344.663 325.5,343.5C 327.933,343.727 329.599,342.727 330.5,340.5C 337.295,333.325 336.962,326.325 329.5,319.5 Z"/></g>
<g><path style="opacity:1" fill="#f3e3fc" d="M 255.5,342.5 C 278.811,343.448 302.145,343.782 325.5,343.5C 303.004,344.663 280.337,344.83 257.5,344C 256.584,343.722 255.918,343.222 255.5,342.5 Z"/></g>
<g><path style="opacity:1" fill="#c8b0e2" d="M 138.5,347.5 C 138.5,347.167 138.5,346.833 138.5,346.5C 159.836,346.333 181.169,346.5 202.5,347C 203.737,347.232 204.737,347.732 205.5,348.5C 183.189,347.554 160.856,347.221 138.5,347.5 Z"/></g>
<g><path style="opacity:1" fill="#f4e8fb" d="M 138.5,347.5 C 160.856,347.221 183.189,347.554 205.5,348.5C 206.833,348.5 208.167,348.5 209.5,348.5C 213.34,349.63 216.673,351.63 219.5,354.5C 215.661,352.893 211.661,351.393 207.5,350C 185.186,348.271 162.853,348.104 140.5,349.5C 139.995,350.919 138.995,351.585 137.5,351.5C 137.232,349.901 137.566,348.568 138.5,347.5 Z"/></g>
<g><path style="opacity:1" fill="#471976" d="M 207.5,346.5 C 211.548,346.395 215.548,346.728 219.5,347.5C 220.82,350.826 222.153,354.16 223.5,357.5C 222.167,356.5 220.833,355.5 219.5,354.5C 216.673,351.63 213.34,349.63 209.5,348.5C 208.833,347.833 208.167,347.167 207.5,346.5 Z"/></g>
<g><path style="opacity:1" fill="#fefdfd" d="M 219.5,354.5 C 221.038,358.602 222.871,362.602 225,366.5C 225.901,374.944 225.401,383.278 223.5,391.5C 222.64,396.207 220.973,400.541 218.5,404.5C 215.421,407.65 213.087,411.317 211.5,415.5C 210.167,416.167 209.167,417.167 208.5,418.5C 204.807,421.203 201.14,423.869 197.5,426.5C 193.617,426.751 191.617,428.751 191.5,432.5C 191.334,436.846 191.501,441.179 192,445.5C 192.874,449.468 194.374,453.135 196.5,456.5C 196.5,457.5 196.5,458.5 196.5,459.5C 197.114,463.135 197.448,466.802 197.5,470.5C 185.167,470.5 172.833,470.5 160.5,470.5C 160.737,469.209 160.404,468.209 159.5,467.5C 158.352,456.615 156.686,445.948 154.5,435.5C 154.5,434.833 154.167,434.5 153.5,434.5C 152.848,433.275 151.681,432.608 150,432.5C 148.615,432.514 147.449,432.848 146.5,433.5C 144.844,436.364 142.844,439.198 140.5,442C 141.406,443.699 141.739,445.533 141.5,447.5C 139.398,450.931 137.565,454.598 136,458.5C 135.506,460.134 135.34,461.801 135.5,463.5C 135.672,464.492 135.338,465.158 134.5,465.5C 132.241,466.344 131.241,468.011 131.5,470.5C 124.109,470.799 116.776,470.465 109.5,469.5C 108.3,457.496 108.3,445.496 109.5,433.5C 110.75,430.994 111.416,428.327 111.5,425.5C 111.723,421.838 112.723,418.505 114.5,415.5C 116.943,410.5 118.61,405.166 119.5,399.5C 119.833,399.5 120.167,399.5 120.5,399.5C 121.117,399.389 121.617,399.056 122,398.5C 123.412,393.471 125.079,388.471 127,383.5C 129.109,382.965 129.609,381.965 128.5,380.5C 131.902,375.433 133.569,369.766 133.5,363.5C 134.91,359.603 135.91,355.603 136.5,351.5C 136.833,351.5 137.167,351.5 137.5,351.5C 138.995,351.585 139.995,350.919 140.5,349.5C 162.853,348.104 185.186,348.271 207.5,350C 211.661,351.393 215.661,352.893 219.5,354.5 Z"/></g>
<g><path style="opacity:1" fill="#a78dbf" d="M 135.5,351.5 C 135.833,351.5 136.167,351.5 136.5,351.5C 135.91,355.603 134.91,359.603 133.5,363.5C 133.167,363.5 132.833,363.5 132.5,363.5C 133.488,359.515 134.488,355.515 135.5,351.5 Z"/></g>
<g><path style="opacity:1" fill="#441873" d="M 408.5,371.5 C 394.772,369.9 381.105,370.233 367.5,372.5C 368.949,370.836 370.949,370.002 373.5,370C 384.833,369.333 396.167,369.333 407.5,370C 408.056,370.383 408.389,370.883 408.5,371.5 Z"/></g>
<g><path style="opacity:1" fill="#d7c5e8" d="M 219.5,354.5 C 220.833,355.5 222.167,356.5 223.5,357.5C 228.634,368.97 228.634,380.304 223.5,391.5C 225.401,383.278 225.901,374.944 225,366.5C 222.871,362.602 221.038,358.602 219.5,354.5 Z"/></g>
<g><path style="opacity:1" fill="#c0a7d7" d="M 408.5,371.5 C 408.833,371.5 409.167,371.5 409.5,371.5C 409.5,371.833 409.5,372.167 409.5,372.5C 395.471,372.238 381.471,372.571 367.5,373.5C 367.5,373.167 367.5,372.833 367.5,372.5C 381.105,370.233 394.772,369.9 408.5,371.5 Z"/></g>
<g><path style="opacity:1" fill="#4c2478" d="M 409.5,372.5 C 409.5,372.167 409.5,371.833 409.5,371.5C 413.182,371.335 416.848,371.501 420.5,372C 423.281,372.522 425.615,373.689 427.5,375.5C 424.57,374.701 421.57,374.368 418.5,374.5C 415.61,373.755 412.61,373.088 409.5,372.5 Z"/></g>
<g><path style="opacity:1" fill="#f9effd" d="M 409.5,372.5 C 412.61,373.088 415.61,373.755 418.5,374.5C 420.961,375.531 423.627,376.198 426.5,376.5C 426.5,378.833 426.5,381.167 426.5,383.5C 425.871,386.397 424.871,389.064 423.5,391.5C 423.779,386.773 424.446,382.107 425.5,377.5C 408.722,374.055 391.722,372.888 374.5,374C 369.239,375.462 363.906,376.628 358.5,377.5C 361.5,376.167 364.5,374.833 367.5,373.5C 381.471,372.571 395.471,372.238 409.5,372.5 Z"/></g>
<g><path style="opacity:1" fill="#f0defa" d="M 273.5,373.5 C 273.247,377.04 272.581,380.373 271.5,383.5C 271.5,380.5 271.5,377.5 271.5,374.5C 260.167,374.5 248.833,374.5 237.5,374.5C 237.806,377.385 237.473,380.052 236.5,382.5C 236.5,379.5 236.5,376.5 236.5,373.5C 248.833,373.5 261.167,373.5 273.5,373.5 Z"/></g>
<g><path style="opacity:1" fill="#e6d4f3" d="M 290.5,373.5 C 303.833,373.5 317.167,373.5 330.5,373.5C 330.768,375.099 330.434,376.432 329.5,377.5C 329.5,376.5 329.5,375.5 329.5,374.5C 316.833,374.5 304.167,374.5 291.5,374.5C 291.405,376.786 290.738,378.786 289.5,380.5C 289.674,378.139 290.007,375.806 290.5,373.5 Z"/></g>
<g><path style="opacity:1" fill="#fdfcfd" d="M 423.5,391.5 C 423.5,392.833 423.5,394.167 423.5,395.5C 421.657,397.853 420.323,400.52 419.5,403.5C 418.351,403.791 417.684,404.624 417.5,406C 416.131,409.012 415.464,412.179 415.5,415.5C 414.138,420.283 412.472,424.95 410.5,429.5C 409.313,431.072 408.313,432.739 407.5,434.5C 405.972,438.553 404.139,442.553 402,446.5C 401.503,448.81 401.337,451.143 401.5,453.5C 399.787,454.635 399.12,456.302 399.5,458.5C 398.395,462.352 397.062,466.018 395.5,469.5C 394.076,471.515 393.41,473.848 393.5,476.5C 392.224,478.562 391.39,480.896 391,483.5C 388.48,487.224 385.98,490.891 383.5,494.5C 383.5,495.167 383.167,495.5 382.5,495.5C 378.854,497.817 375.52,500.484 372.5,503.5C 371.391,503.557 370.391,503.89 369.5,504.5C 368.167,504.5 366.833,504.5 365.5,504.5C 351.9,506.152 338.233,506.819 324.5,506.5C 320.5,506.5 316.5,506.5 312.5,506.5C 312.167,506.5 311.833,506.5 311.5,506.5C 309.708,505.691 307.708,505.191 305.5,505C 303.456,504.502 302.122,503.335 301.5,501.5C 302.799,499.588 303.799,497.588 304.5,495.5C 306.834,493.824 307.834,491.491 307.5,488.5C 308.167,487.167 308.833,485.833 309.5,484.5C 311.64,482.505 312.973,480.005 313.5,477C 327.155,477.39 340.822,477.39 354.5,477C 355.416,476.722 356.082,476.222 356.5,475.5C 361.004,475.121 363.337,472.788 363.5,468.5C 365.833,465.167 368.167,461.833 370.5,458.5C 372.088,457.365 372.421,456.031 371.5,454.5C 372.242,453.713 373.075,453.047 374,452.5C 374.27,449.776 374.77,447.109 375.5,444.5C 374.833,444.167 374.167,443.833 373.5,443.5C 370.899,447.106 367.899,450.439 364.5,453.5C 363.754,454.736 363.421,456.07 363.5,457.5C 363.167,458.167 362.833,458.833 362.5,459.5C 360.223,460.449 358.223,461.782 356.5,463.5C 354.326,463.75 352.659,464.75 351.5,466.5C 346.286,467.968 340.953,468.635 335.5,468.5C 331.466,468.328 327.466,467.828 323.5,467C 318.416,464.757 316.083,460.757 316.5,455C 317.233,447.834 317.9,440.667 318.5,433.5C 321.213,429.005 323.713,424.338 326,419.5C 326.497,416.854 326.664,414.187 326.5,411.5C 328.868,409.157 331.035,406.491 333,403.5C 333.49,402.207 333.657,400.873 333.5,399.5C 333.427,397.973 334.094,396.973 335.5,396.5C 339.472,392.193 343.472,387.859 347.5,383.5C 351.777,382.525 355.443,380.525 358.5,377.5C 363.906,376.628 369.239,375.462 374.5,374C 391.722,372.888 408.722,374.055 425.5,377.5C 424.446,382.107 423.779,386.773 423.5,391.5 Z"/></g>
<g><path style="opacity:1" fill="#fdfdfd" d="M 271.5,383.5 C 271.5,384.833 271.5,386.167 271.5,387.5C 269.864,391.21 269.198,395.21 269.5,399.5C 268.756,403.119 268.423,406.785 268.5,410.5C 267.715,412.374 267.048,414.374 266.5,416.5C 265.073,418.148 264.24,420.148 264,422.5C 263.667,426.167 263.333,429.833 263,433.5C 262.333,434.167 261.667,434.833 261,435.5C 260.693,440.357 260.193,445.19 259.5,450C 259.833,450.833 260.167,451.667 260.5,452.5C 261.562,450.978 262.229,449.312 262.5,447.5C 262.833,447.5 263.167,447.5 263.5,447.5C 264.376,447.631 265.043,447.298 265.5,446.5C 267.234,442.963 268.568,439.296 269.5,435.5C 269.833,434.167 270.167,432.833 270.5,431.5C 270.833,431.5 271.167,431.5 271.5,431.5C 273.755,429.469 275.088,426.802 275.5,423.5C 275.5,423.167 275.5,422.833 275.5,422.5C 277.834,420.824 278.834,418.491 278.5,415.5C 280.188,412.777 281.688,409.777 283,406.5C 283.977,404.26 284.477,401.927 284.5,399.5C 284.366,397.708 284.699,396.042 285.5,394.5C 286.79,393.942 287.623,392.942 288,391.5C 288.363,388.456 288.863,385.456 289.5,382.5C 289.5,381.833 289.5,381.167 289.5,380.5C 290.738,378.786 291.405,376.786 291.5,374.5C 304.167,374.5 316.833,374.5 329.5,374.5C 329.5,375.5 329.5,376.5 329.5,377.5C 329.125,379.698 328.458,381.698 327.5,383.5C 320.32,401.025 312.653,418.358 304.5,435.5C 304.5,436.167 304.167,436.5 303.5,436.5C 302.069,436.881 301.236,437.881 301,439.5C 300.667,439.167 300.333,438.833 300,438.5C 299.74,440.618 298.74,442.284 297,443.5C 296.505,445.473 296.338,447.473 296.5,449.5C 292.589,454.322 288.922,459.322 285.5,464.5C 283.413,465.585 282.08,467.251 281.5,469.5C 280.5,469.833 279.833,470.5 279.5,471.5C 276.452,473.882 273.785,476.548 271.5,479.5C 267.544,481.788 264.211,484.788 261.5,488.5C 259.251,489.08 257.585,490.413 256.5,492.5C 255.167,492.833 253.833,493.167 252.5,493.5C 244.995,498.507 236.661,501.674 227.5,503C 226.142,503.934 224.808,504.768 223.5,505.5C 216.167,505.5 208.833,505.5 201.5,505.5C 202.203,496.851 202.536,488.185 202.5,479.5C 205.833,478.833 209.167,478.167 212.5,477.5C 215.228,477.829 217.562,477.163 219.5,475.5C 225.204,473.107 228.204,468.774 228.5,462.5C 229.181,460.842 230.015,459.175 231,457.5C 233.263,433.53 234.763,409.53 235.5,385.5C 235.557,384.391 235.89,383.391 236.5,382.5C 237.473,380.052 237.806,377.385 237.5,374.5C 248.833,374.5 260.167,374.5 271.5,374.5C 271.5,377.5 271.5,380.5 271.5,383.5 Z"/></g>
<g><path style="opacity:1" fill="#d2bae6" d="M 418.5,374.5 C 421.57,374.368 424.57,374.701 427.5,375.5C 427.5,378.167 427.5,380.833 427.5,383.5C 427.167,383.5 426.833,383.5 426.5,383.5C 426.5,381.167 426.5,378.833 426.5,376.5C 423.627,376.198 420.961,375.531 418.5,374.5 Z"/></g>
<g><path style="opacity:1" fill="#ebddf4" d="M 157.5,404.5 C 158.017,394.973 160.35,385.64 164.5,376.5C 167.947,375.87 171.447,375.537 175,375.5C 186.783,372.981 191.45,377.315 189,388.5C 187.403,391.292 186.403,394.292 186,397.5C 183.357,398.936 181.523,401.103 180.5,404C 172.796,406.634 165.129,406.801 157.5,404.5 Z"/></g>
<g><path style="opacity:1" fill="#5b3480" d="M 273.5,373.5 C 261.167,373.5 248.833,373.5 236.5,373.5C 236.5,376.5 236.5,379.5 236.5,382.5C 235.89,383.391 235.557,384.391 235.5,385.5C 234.833,391.167 234.167,396.833 233.5,402.5C 233.334,392.828 233.5,383.161 234,373.5C 234.5,373 235,372.5 235.5,372C 247.879,371.814 260.212,371.314 272.5,370.5C 273.386,371.325 273.719,372.325 273.5,373.5 Z"/></g>
<g><path style="opacity:1" fill="#4b207a" d="M 135.5,351.5 C 134.488,355.515 133.488,359.515 132.5,363.5C 129.626,372.363 126.293,381.03 122.5,389.5C 122.564,385.78 123.064,382.114 124,378.5C 127.912,370.579 131.078,362.246 133.5,353.5C 133.747,352.287 134.414,351.62 135.5,351.5 Z"/></g>
<g><path style="opacity:1" fill="#d4c0e3" d="M 367.5,373.5 C 364.5,374.833 361.5,376.167 358.5,377.5C 355.443,380.525 351.777,382.525 347.5,383.5C 353.032,377.985 359.698,374.652 367.5,373.5 Z"/></g>
<g><path style="opacity:1" fill="#8e70ab" d="M 184.5,379.5 C 184.5,379.167 184.5,378.833 184.5,378.5C 185.496,378.414 186.329,378.748 187,379.5C 187.801,382.367 187.634,385.034 186.5,387.5C 186.889,384.447 186.223,381.78 184.5,379.5 Z"/></g>
<g><path style="opacity:1" fill="#420b79" d="M 184.5,379.5 C 186.223,381.78 186.889,384.447 186.5,387.5C 186.167,388.833 185.833,390.167 185.5,391.5C 183.801,393.566 182.468,395.9 181.5,398.5C 179.371,400.95 176.704,402.617 173.5,403.5C 168.056,404.108 163.056,403.442 158.5,401.5C 158.557,400.391 158.89,399.391 159.5,398.5C 163.53,392.783 166.197,386.45 167.5,379.5C 173.167,379.5 178.833,379.5 184.5,379.5 Z"/></g>
<g><path style="opacity:1" fill="#8463a2" d="M 426.5,383.5 C 426.833,383.5 427.167,383.5 427.5,383.5C 426.744,387.767 425.411,391.767 423.5,395.5C 423.5,394.167 423.5,392.833 423.5,391.5C 424.871,389.064 425.871,386.397 426.5,383.5 Z"/></g>
<g><path style="opacity:1" fill="#522b7b" d="M 184.5,378.5 C 184.5,378.833 184.5,379.167 184.5,379.5C 178.833,379.5 173.167,379.5 167.5,379.5C 166.197,386.45 163.53,392.783 159.5,398.5C 161.895,391.702 164.228,384.869 166.5,378C 172.681,377.181 178.681,377.347 184.5,378.5 Z"/></g>
<g><path style="opacity:1" fill="#50257c" d="M 427.5,375.5 C 428.8,377.223 429.467,379.39 429.5,382C 429.333,384.167 429.167,386.333 429,388.5C 425.512,395.625 422.012,402.625 418.5,409.5C 418.517,407.435 418.85,405.435 419.5,403.5C 420.323,400.52 421.657,397.853 423.5,395.5C 425.411,391.767 426.744,387.767 427.5,383.5C 427.5,380.833 427.5,378.167 427.5,375.5 Z"/></g>
<g><path style="opacity:1" fill="#52287a" d="M 330.5,373.5 C 332.801,376.385 332.635,379.052 330,381.5C 329.987,390.644 326.82,398.311 320.5,404.5C 321.182,400.802 322.682,397.469 325,394.5C 326.31,390.93 327.143,387.263 327.5,383.5C 328.458,381.698 329.125,379.698 329.5,377.5C 330.434,376.432 330.768,375.099 330.5,373.5 Z"/></g>
<g><path style="opacity:1" fill="#bda5d5" d="M 345.5,383.5 C 346.167,383.5 346.833,383.5 347.5,383.5C 343.472,387.859 339.472,392.193 335.5,396.5C 338.043,391.615 341.377,387.282 345.5,383.5 Z"/></g>
<g><path style="opacity:1" fill="#c3b1d3" d="M 289.5,382.5 C 288.863,385.456 288.363,388.456 288,391.5C 287.623,392.942 286.79,393.942 285.5,394.5C 286.486,390.887 287.319,387.221 288,383.5C 288.383,382.944 288.883,382.611 289.5,382.5 Z"/></g>
<g><path style="opacity:1" fill="#decceb" d="M 132.5,363.5 C 132.833,363.5 133.167,363.5 133.5,363.5C 133.569,369.766 131.902,375.433 128.5,380.5C 129.609,381.965 129.109,382.965 127,383.5C 125.079,388.471 123.412,393.471 122,398.5C 121.617,399.056 121.117,399.389 120.5,399.5C 121.01,396.461 121.677,393.461 122.5,390.5C 122.5,390.167 122.5,389.833 122.5,389.5C 126.293,381.03 129.626,372.363 132.5,363.5 Z"/></g>
<g><path style="opacity:1" fill="#4b2077" d="M 273.5,373.5 C 274.586,373.62 275.253,374.287 275.5,375.5C 274.399,384.838 273.233,394.171 272,403.5C 271.102,406.069 269.935,408.402 268.5,410.5C 268.423,406.785 268.756,403.119 269.5,399.5C 270.989,395.764 271.656,391.764 271.5,387.5C 271.5,386.167 271.5,384.833 271.5,383.5C 272.581,380.373 273.247,377.04 273.5,373.5 Z"/></g>
<g><path style="opacity:1" fill="#c0abd4" d="M 271.5,387.5 C 271.656,391.764 270.989,395.764 269.5,399.5C 269.198,395.21 269.864,391.21 271.5,387.5 Z"/></g>
<g><path style="opacity:1" fill="#e2d2ed" d="M 327.5,383.5 C 327.143,387.263 326.31,390.93 325,394.5C 322.682,397.469 321.182,400.802 320.5,404.5C 317.906,410.447 315.406,416.447 313,422.5C 310.64,427.24 307.807,431.574 304.5,435.5C 312.653,418.358 320.32,401.025 327.5,383.5 Z"/></g>
<g><path style="opacity:1" fill="#a991be" d="M 185.5,391.5 C 185.851,394.812 184.518,397.145 181.5,398.5C 182.468,395.9 183.801,393.566 185.5,391.5 Z"/></g>
<g><path style="opacity:1" fill="#6f4a93" d="M 122.5,390.5 C 121.677,393.461 121.01,396.461 120.5,399.5C 120.167,399.5 119.833,399.5 119.5,399.5C 119.446,396.008 120.446,393.008 122.5,390.5 Z"/></g>
<g><path style="opacity:1" fill="#9e80b7" d="M 119.5,399.5 C 118.61,405.166 116.943,410.5 114.5,415.5C 115.39,409.834 117.057,404.5 119.5,399.5 Z"/></g>
<g><path style="opacity:1" fill="#ccb4de" d="M 284.5,399.5 C 284.477,401.927 283.977,404.26 283,406.5C 281.688,409.777 280.188,412.777 278.5,415.5C 279.546,409.681 281.546,404.347 284.5,399.5 Z"/></g>
<g><path style="opacity:1" fill="#a78ec1" d="M 383.5,406.5 C 383.167,406.5 382.833,406.5 382.5,406.5C 382.5,405.5 382.5,404.5 382.5,403.5C 379.615,403.194 376.948,403.527 374.5,404.5C 372.784,404.629 371.117,404.962 369.5,405.5C 370.347,404.034 371.68,403.2 373.5,403C 376.817,402.502 380.15,402.335 383.5,402.5C 383.5,403.833 383.5,405.167 383.5,406.5 Z"/></g>
<g><path style="opacity:1" fill="#775796" d="M 158.5,401.5 C 163.056,403.442 168.056,404.108 173.5,403.5C 168.36,404.488 163.026,404.821 157.5,404.5C 157.263,403.209 157.596,402.209 158.5,401.5 Z"/></g>
<g><path style="opacity:1" fill="#dac5eb" d="M 333.5,399.5 C 333.657,400.873 333.49,402.207 333,403.5C 331.035,406.491 328.868,409.157 326.5,411.5C 327.828,406.835 330.161,402.835 333.5,399.5 Z"/></g>
<g><path style="opacity:1" fill="#44107a" d="M 374.5,404.5 C 376.5,404.5 378.5,404.5 380.5,404.5C 380.5,405.5 380.5,406.5 380.5,407.5C 379.5,407.5 378.5,407.5 377.5,407.5C 377.348,411.924 376.681,416.257 375.5,420.5C 374.66,422.853 373.326,424.853 371.5,426.5C 368.701,429.637 365.368,431.971 361.5,433.5C 360.167,433.5 358.833,433.5 357.5,433.5C 358.781,428.234 360.114,422.9 361.5,417.5C 361.5,416.833 361.5,416.167 361.5,415.5C 363.195,411.473 365.861,408.14 369.5,405.5C 371.117,404.962 372.784,404.629 374.5,404.5 Z"/></g>
<g><path style="opacity:1" fill="#542b7e" d="M 374.5,404.5 C 376.948,403.527 379.615,403.194 382.5,403.5C 382.5,404.5 382.5,405.5 382.5,406.5C 381.015,410.963 379.348,415.296 377.5,419.5C 376.833,419.833 376.167,420.167 375.5,420.5C 376.681,416.257 377.348,411.924 377.5,407.5C 378.5,407.5 379.5,407.5 380.5,407.5C 380.5,406.5 380.5,405.5 380.5,404.5C 378.5,404.5 376.5,404.5 374.5,404.5 Z"/></g>
<g><path style="opacity:1" fill="#b69bcd" d="M 218.5,404.5 C 218.649,405.552 218.483,406.552 218,407.5C 216.054,410.42 213.887,413.087 211.5,415.5C 213.087,411.317 215.421,407.65 218.5,404.5 Z"/></g>
<g><path style="opacity:1" fill="#e6d2f0" d="M 382.5,406.5 C 382.833,406.5 383.167,406.5 383.5,406.5C 382.643,411.425 380.643,415.758 377.5,419.5C 379.348,415.296 381.015,410.963 382.5,406.5 Z"/></g>
<g><path style="opacity:1" fill="#cdb6de" d="M 419.5,403.5 C 418.85,405.435 418.517,407.435 418.5,409.5C 417.797,411.629 416.797,413.629 415.5,415.5C 415.464,412.179 416.131,409.012 417.5,406C 417.684,404.624 418.351,403.791 419.5,403.5 Z"/></g>
<g><path style="opacity:1" fill="#e8d9f1" d="M 235.5,385.5 C 234.763,409.53 233.263,433.53 231,457.5C 230.015,459.175 229.181,460.842 228.5,462.5C 228.5,460.833 228.5,459.167 228.5,457.5C 230.314,444.363 231.647,431.029 232.5,417.5C 233.487,412.695 233.821,407.695 233.5,402.5C 234.167,396.833 234.833,391.167 235.5,385.5 Z"/></g>
<g><path style="opacity:1" fill="#bea7d4" d="M 278.5,415.5 C 278.834,418.491 277.834,420.824 275.5,422.5C 275.935,419.843 276.935,417.509 278.5,415.5 Z"/></g>
<g><path style="opacity:1" fill="#decdea" d="M 326.5,411.5 C 326.664,414.187 326.497,416.854 326,419.5C 323.713,424.338 321.213,429.005 318.5,433.5C 319.803,425.585 322.469,418.251 326.5,411.5 Z"/></g>
<g><path style="opacity:1" fill="#6c4b8e" d="M 361.5,417.5 C 360.114,422.9 358.781,428.234 357.5,433.5C 358.833,433.5 360.167,433.5 361.5,433.5C 360.081,434.451 358.415,434.784 356.5,434.5C 356.183,431.428 356.516,428.428 357.5,425.5C 358.543,422.556 359.876,419.889 361.5,417.5 Z"/></g>
<g><path style="opacity:1" fill="#6e4a94" d="M 208.5,418.5 C 205.894,422.793 202.227,425.459 197.5,426.5C 201.14,423.869 204.807,421.203 208.5,418.5 Z"/></g>
<g><path style="opacity:1" fill="#bda4d0" d="M 275.5,423.5 C 275.088,426.802 273.755,429.469 271.5,431.5C 272.279,428.455 273.613,425.789 275.5,423.5 Z"/></g>
<g><path style="opacity:1" fill="#48187a" d="M 345.5,383.5 C 341.377,387.282 338.043,391.615 335.5,396.5C 334.094,396.973 333.427,397.973 333.5,399.5C 330.161,402.835 327.828,406.835 326.5,411.5C 322.469,418.251 319.803,425.585 318.5,433.5C 314.078,443.166 313.411,453.166 316.5,463.5C 315.5,463.5 314.5,463.5 313.5,463.5C 312.555,455.512 312.388,447.512 313,439.5C 311.284,440.552 310.284,439.886 310,437.5C 307.586,436.144 305.419,436.478 303.5,438.5C 303.5,437.833 303.5,437.167 303.5,436.5C 304.167,436.5 304.5,436.167 304.5,435.5C 307.807,431.574 310.64,427.24 313,422.5C 315.406,416.447 317.906,410.447 320.5,404.5C 326.82,398.311 329.987,390.644 330,381.5C 332.635,379.052 332.801,376.385 330.5,373.5C 317.167,373.5 303.833,373.5 290.5,373.5C 302.646,371.781 315.146,370.781 328,370.5C 328.833,370.667 329.667,370.833 330.5,371C 334.36,373.822 336.027,377.655 335.5,382.5C 338.598,382.413 338.932,382.913 336.5,384C 337.617,385.892 339.284,386.725 341.5,386.5C 341.5,385.5 341.5,384.5 341.5,383.5C 342.833,383.5 344.167,383.5 345.5,383.5 Z"/></g>
<g><path style="opacity:1" fill="#8b70a8" d="M 153.5,434.5 C 150.487,434.107 147.82,434.774 145.5,436.5C 145.557,435.391 145.89,434.391 146.5,433.5C 147.449,432.848 148.615,432.514 150,432.5C 151.681,432.608 152.848,433.275 153.5,434.5 Z"/></g>
<g><path style="opacity:1" fill="#dac9e8" d="M 361.5,415.5 C 361.5,416.167 361.5,416.833 361.5,417.5C 359.876,419.889 358.543,422.556 357.5,425.5C 356.516,428.428 356.183,431.428 356.5,434.5C 358.415,434.784 360.081,434.451 361.5,433.5C 365.368,431.971 368.701,429.637 371.5,426.5C 369.878,429.138 368.211,431.804 366.5,434.5C 355.404,439.186 351.904,435.853 356,424.5C 357.867,422.192 358.867,419.525 359,416.5C 359.671,415.748 360.504,415.414 361.5,415.5 Z"/></g>
<g><path style="opacity:1" fill="#ece0f1" d="M 266.5,416.5 C 265.716,423.566 264.716,430.566 263.5,437.5C 261.624,440.737 261.29,444.07 262.5,447.5C 262.229,449.312 261.562,450.978 260.5,452.5C 260.167,451.667 259.833,450.833 259.5,450C 260.193,445.19 260.693,440.357 261,435.5C 261.667,434.833 262.333,434.167 263,433.5C 263.333,429.833 263.667,426.167 264,422.5C 264.24,420.148 265.073,418.148 266.5,416.5 Z"/></g>
<g><path style="opacity:1" fill="#9073aa" d="M 410.5,429.5 C 409.744,433.767 408.411,437.767 406.5,441.5C 406.674,439.139 407.007,436.806 407.5,434.5C 408.313,432.739 409.313,431.072 410.5,429.5 Z"/></g>
<g><path style="opacity:1" fill="#4b2177" d="M 268.5,410.5 C 268.848,417.471 268.182,424.305 266.5,431C 266.667,432.5 266.833,434 267,435.5C 267.498,433.456 268.665,432.122 270.5,431.5C 270.167,432.833 269.833,434.167 269.5,435.5C 267.837,438.129 266.171,440.796 264.5,443.5C 263.539,441.735 263.205,439.735 263.5,437.5C 264.716,430.566 265.716,423.566 266.5,416.5C 267.048,414.374 267.715,412.374 268.5,410.5 Z"/></g>
<g><path style="opacity:1" fill="#491b78" d="M 418.5,409.5 C 419.264,414.14 418.097,418.14 415,421.5C 414.814,425.516 414.814,429.516 415,433.5C 414.311,432.643 413.478,431.977 412.5,431.5C 410.751,435.763 408.751,439.763 406.5,443.5C 406.5,442.833 406.5,442.167 406.5,441.5C 408.411,437.767 409.744,433.767 410.5,429.5C 412.472,424.95 414.138,420.283 415.5,415.5C 416.797,413.629 417.797,411.629 418.5,409.5 Z"/></g>
<g><path style="opacity:1" fill="#ded0ec" d="M 146.5,433.5 C 145.89,434.391 145.557,435.391 145.5,436.5C 144.25,439.006 143.584,441.673 143.5,444.5C 142.833,445.5 142.167,446.5 141.5,447.5C 141.739,445.533 141.406,443.699 140.5,442C 142.844,439.198 144.844,436.364 146.5,433.5 Z"/></g>
<g><path style="opacity:1" fill="#e8daf0" d="M 303.5,436.5 C 303.5,437.167 303.5,437.833 303.5,438.5C 303.5,438.833 303.5,439.167 303.5,439.5C 301.448,442.98 299.115,446.313 296.5,449.5C 296.338,447.473 296.505,445.473 297,443.5C 298.74,442.284 299.74,440.618 300,438.5C 300.333,438.833 300.667,439.167 301,439.5C 301.236,437.881 302.069,436.881 303.5,436.5 Z"/></g>
<g><path style="opacity:1" fill="#7a6196" d="M 263.5,437.5 C 263.205,439.735 263.539,441.735 264.5,443.5C 264.167,444.833 263.833,446.167 263.5,447.5C 263.167,447.5 262.833,447.5 262.5,447.5C 261.29,444.07 261.624,440.737 263.5,437.5 Z"/></g>
<g><path style="opacity:1" fill="#997bb4" d="M 111.5,425.5 C 111.416,428.327 110.75,430.994 109.5,433.5C 108.207,434.842 107.374,436.509 107,438.5C 106.5,449.495 106.333,460.495 106.5,471.5C 105.505,460.679 105.172,449.679 105.5,438.5C 106.742,433.755 108.742,429.421 111.5,425.5 Z"/></g>
<g><path style="opacity:1" fill="#7c5b9c" d="M 232.5,417.5 C 231.647,431.029 230.314,444.363 228.5,457.5C 228.843,443.917 230.177,430.584 232.5,417.5 Z"/></g>
<g><path style="opacity:1" fill="#d4c1e3" d="M 269.5,435.5 C 268.568,439.296 267.234,442.963 265.5,446.5C 265.043,447.298 264.376,447.631 263.5,447.5C 263.833,446.167 264.167,444.833 264.5,443.5C 266.171,440.796 267.837,438.129 269.5,435.5 Z"/></g>
<g><path style="opacity:1" fill="#ddcde8" d="M 407.5,434.5 C 407.007,436.806 406.674,439.139 406.5,441.5C 406.5,442.167 406.5,442.833 406.5,443.5C 404.301,446.565 402.634,449.898 401.5,453.5C 401.337,451.143 401.503,448.81 402,446.5C 404.139,442.553 405.972,438.553 407.5,434.5 Z"/></g>
<g><path style="opacity:1" fill="#e7d7f0" d="M 318.5,433.5 C 317.9,440.667 317.233,447.834 316.5,455C 316.083,460.757 318.416,464.757 323.5,467C 327.466,467.828 331.466,468.328 335.5,468.5C 331.322,469.571 326.989,469.571 322.5,468.5C 319.885,467.55 317.885,465.883 316.5,463.5C 313.411,453.166 314.078,443.166 318.5,433.5 Z"/></g>
<g><path style="opacity:1" fill="#e9dff0" d="M 370.5,458.5 C 370.5,457.167 370.5,455.833 370.5,454.5C 372.05,452.02 372.883,449.353 373,446.5C 370.9,449.051 369.067,451.717 367.5,454.5C 366.167,455.5 364.833,456.5 363.5,457.5C 363.421,456.07 363.754,454.736 364.5,453.5C 367.899,450.439 370.899,447.106 373.5,443.5C 374.167,443.833 374.833,444.167 375.5,444.5C 374.77,447.109 374.27,449.776 374,452.5C 373.075,453.047 372.242,453.713 371.5,454.5C 372.421,456.031 372.088,457.365 370.5,458.5 Z"/></g>
<g><path style="opacity:1" fill="#88769a" d="M 370.5,454.5 C 370.167,454.5 369.833,454.5 369.5,454.5C 369.062,453.494 368.396,453.494 367.5,454.5C 369.067,451.717 370.9,449.051 373,446.5C 372.883,449.353 372.05,452.02 370.5,454.5 Z"/></g>
<g><path style="opacity:1" fill="#745099" d="M 154.5,435.5 C 156.686,445.948 158.352,456.615 159.5,467.5C 159.5,468.833 159.5,470.167 159.5,471.5C 156.19,459.893 154.524,447.893 154.5,435.5 Z"/></g>
<g><path style="opacity:1" fill="#dfcaed" d="M 191.5,432.5 C 193.531,440.303 195.198,448.303 196.5,456.5C 194.374,453.135 192.874,449.468 192,445.5C 191.501,441.179 191.334,436.846 191.5,432.5 Z"/></g>
<g><path style="opacity:1" fill="#604085" d="M 369.5,454.5 C 369.573,456.027 368.906,457.027 367.5,457.5C 367.565,457.062 367.399,456.728 367,456.5C 365.871,458.141 364.371,459.141 362.5,459.5C 362.833,458.833 363.167,458.167 363.5,457.5C 364.833,456.5 366.167,455.5 367.5,454.5C 368.396,453.494 369.062,453.494 369.5,454.5 Z"/></g>
<g><path style="opacity:1" fill="#b697d5" d="M 401.5,453.5 C 401.88,455.698 401.213,457.365 399.5,458.5C 399.12,456.302 399.787,454.635 401.5,453.5 Z"/></g>
<g><path style="opacity:1" fill="#50277a" d="M 197.5,426.5 C 197.25,427.922 196.417,428.922 195,429.5C 194.833,430.667 194.667,431.833 194.5,433C 196.463,444.143 198.13,455.309 199.5,466.5C 199.167,466.5 198.833,466.5 198.5,466.5C 198.662,464.473 198.495,462.473 198,460.5C 197.617,459.944 197.117,459.611 196.5,459.5C 196.5,458.5 196.5,457.5 196.5,456.5C 195.198,448.303 193.531,440.303 191.5,432.5C 191.617,428.751 193.617,426.751 197.5,426.5 Z"/></g>
<g><path style="opacity:1" fill="#51297b" d="M 303.5,439.5 C 303.66,441.199 303.494,442.866 303,444.5C 300.073,448.689 297.407,453.023 295,457.5C 292.461,460.913 289.294,463.579 285.5,465.5C 285.5,465.167 285.5,464.833 285.5,464.5C 288.922,459.322 292.589,454.322 296.5,449.5C 299.115,446.313 301.448,442.98 303.5,439.5 Z"/></g>
<g><path style="opacity:1" fill="#8b6cae" d="M 356.5,463.5 C 355.514,465.408 353.848,466.408 351.5,466.5C 352.659,464.75 354.326,463.75 356.5,463.5 Z"/></g>
<g><path style="opacity:1" fill="#cab0dd" d="M 369.5,454.5 C 369.833,454.5 370.167,454.5 370.5,454.5C 370.5,455.833 370.5,457.167 370.5,458.5C 368.167,461.833 365.833,465.167 363.5,468.5C 364.555,464.725 365.888,461.058 367.5,457.5C 368.906,457.027 369.573,456.027 369.5,454.5 Z"/></g>
<g><path style="opacity:1" fill="#9477b0" d="M 285.5,464.5 C 285.5,464.833 285.5,465.167 285.5,465.5C 284.5,467.167 283.167,468.5 281.5,469.5C 282.08,467.251 283.413,465.585 285.5,464.5 Z"/></g>
<g><path style="opacity:1" fill="#c0a8d5" d="M 351.5,466.5 C 351.5,466.833 351.5,467.167 351.5,467.5C 351.167,467.5 350.833,467.5 350.5,467.5C 343.389,469.801 336.056,470.801 328.5,470.5C 326.214,470.405 324.214,469.738 322.5,468.5C 326.989,469.571 331.322,469.571 335.5,468.5C 340.953,468.635 346.286,467.968 351.5,466.5 Z"/></g>
<g><path style="opacity:1" fill="#552d7d" d="M 350.5,467.5 C 350.631,468.376 350.298,469.043 349.5,469.5C 342.441,471.573 335.441,471.907 328.5,470.5C 336.056,470.801 343.389,469.801 350.5,467.5 Z"/></g>
<g><path style="opacity:1" fill="#e9dbf4" d="M 109.5,433.5 C 108.3,445.496 108.3,457.496 109.5,469.5C 116.776,470.465 124.109,470.799 131.5,470.5C 131.241,468.011 132.241,466.344 134.5,465.5C 134.335,467.827 133.669,469.993 132.5,472C 123.657,472.824 114.99,472.657 106.5,471.5C 106.333,460.495 106.5,449.495 107,438.5C 107.374,436.509 108.207,434.842 109.5,433.5 Z"/></g>
<g><path style="opacity:1" fill="#f1e5f8" d="M 196.5,459.5 C 197.117,459.611 197.617,459.944 198,460.5C 198.495,462.473 198.662,464.473 198.5,466.5C 198.5,468.167 198.5,469.833 198.5,471.5C 185.5,471.5 172.5,471.5 159.5,471.5C 159.5,470.167 159.5,468.833 159.5,467.5C 160.404,468.209 160.737,469.209 160.5,470.5C 172.833,470.5 185.167,470.5 197.5,470.5C 197.448,466.802 197.114,463.135 196.5,459.5 Z"/></g>
<g><path style="opacity:1" fill="#b29aca" d="M 198.5,466.5 C 198.833,466.5 199.167,466.5 199.5,466.5C 199.5,468.5 199.5,470.5 199.5,472.5C 185.99,472.829 172.656,472.496 159.5,471.5C 172.5,471.5 185.5,471.5 198.5,471.5C 198.5,469.833 198.5,468.167 198.5,466.5 Z"/></g>
<g><path style="opacity:1" fill="#9f84b7" d="M 395.5,469.5 C 395.59,472.152 394.924,474.485 393.5,476.5C 393.41,473.848 394.076,471.515 395.5,469.5 Z"/></g>
<g><path style="opacity:1" fill="#491e76" d="M 105.5,438.5 C 105.172,449.679 105.505,460.679 106.5,471.5C 114.99,472.657 123.657,472.824 132.5,472C 133.669,469.993 134.335,467.827 134.5,465.5C 135.338,465.158 135.672,464.492 135.5,463.5C 138.704,458.733 140.704,453.4 141.5,447.5C 142.167,446.5 142.833,445.5 143.5,444.5C 142.441,455.177 139.108,465.01 133.5,474C 124.167,474.667 114.833,474.667 105.5,474C 104.196,473.196 103.529,472.029 103.5,470.5C 104.123,459.685 104.79,449.019 105.5,438.5 Z"/></g>
<g><path style="opacity:1" fill="#c7afdb" d="M 141.5,447.5 C 140.704,453.4 138.704,458.733 135.5,463.5C 135.34,461.801 135.506,460.134 136,458.5C 137.565,454.598 139.398,450.931 141.5,447.5 Z"/></g>
<g><path style="opacity:1" fill="#8564a6" d="M 279.5,471.5 C 277.855,475.145 275.188,477.812 271.5,479.5C 273.785,476.548 276.452,473.882 279.5,471.5 Z"/></g>
<g><path style="opacity:1" fill="#491e77" d="M 367.5,457.5 C 365.888,461.058 364.555,464.725 363.5,468.5C 361.5,471.167 359.167,473.5 356.5,475.5C 342.141,476.818 327.807,476.485 313.5,474.5C 326.653,474.43 339.986,474.263 353.5,474C 355.025,472.991 356.692,472.491 358.5,472.5C 359.801,470.328 360.801,467.995 361.5,465.5C 358.167,466.167 354.833,466.833 351.5,467.5C 351.5,467.167 351.5,466.833 351.5,466.5C 353.848,466.408 355.514,465.408 356.5,463.5C 358.223,461.782 360.223,460.449 362.5,459.5C 364.371,459.141 365.871,458.141 367,456.5C 367.399,456.728 367.565,457.062 367.5,457.5 Z"/></g>
<g><path style="opacity:1" fill="#bba3cd" d="M 363.5,468.5 C 363.337,472.788 361.004,475.121 356.5,475.5C 359.167,473.5 361.5,471.167 363.5,468.5 Z"/></g>
<g><path style="opacity:1" fill="#d1bce2" d="M 313.5,474.5 C 327.807,476.485 342.141,476.818 356.5,475.5C 356.082,476.222 355.416,476.722 354.5,477C 340.822,477.39 327.155,477.39 313.5,477C 312.973,480.005 311.64,482.505 309.5,484.5C 310.257,480.889 311.59,477.555 313.5,474.5 Z"/></g>
<g><path style="opacity:1" fill="#9d82b7" d="M 219.5,475.5 C 217.562,477.163 215.228,477.829 212.5,477.5C 208.833,477.5 205.167,477.5 201.5,477.5C 207.34,476.649 213.34,475.982 219.5,475.5 Z"/></g>
<g><path style="opacity:1" fill="#4c1f7b" d="M 406.5,443.5 C 406.22,451.374 403.72,458.374 399,464.5C 397.934,471.304 396.268,477.971 394,484.5C 392.989,485.337 391.822,485.67 390.5,485.5C 389.696,489.643 387.363,492.643 383.5,494.5C 385.98,490.891 388.48,487.224 391,483.5C 391.39,480.896 392.224,478.562 393.5,476.5C 394.924,474.485 395.59,472.152 395.5,469.5C 397.062,466.018 398.395,462.352 399.5,458.5C 401.213,457.365 401.88,455.698 401.5,453.5C 402.634,449.898 404.301,446.565 406.5,443.5 Z"/></g>
<g><path style="opacity:1" fill="#886ca7" d="M 271.5,479.5 C 271.489,481.017 270.823,482.184 269.5,483C 266.935,485.08 264.268,486.913 261.5,488.5C 264.211,484.788 267.544,481.788 271.5,479.5 Z"/></g>
<g><path style="opacity:1" fill="#c2aad8" d="M 200.5,477.5 C 200.833,477.5 201.167,477.5 201.5,477.5C 205.167,477.5 208.833,477.5 212.5,477.5C 209.167,478.167 205.833,478.833 202.5,479.5C 201.833,482.167 201.167,484.833 200.5,487.5C 200.5,484.167 200.5,480.833 200.5,477.5 Z"/></g>
<g><path style="opacity:1" fill="#552d82" d="M 200.5,477.5 C 200.5,480.833 200.5,484.167 200.5,487.5C 200.5,488.167 200.5,488.833 200.5,489.5C 199.511,494.975 199.178,500.642 199.5,506.5C 198.342,497.343 198.176,488.009 199,478.5C 199.383,477.944 199.883,477.611 200.5,477.5 Z"/></g>
<g><path style="opacity:1" fill="#f6eafb" d="M 202.5,479.5 C 202.536,488.185 202.203,496.851 201.5,505.5C 208.833,505.5 216.167,505.5 223.5,505.5C 221.735,506.461 219.735,506.795 217.5,506.5C 211.833,506.5 206.167,506.5 200.5,506.5C 200.5,500.833 200.5,495.167 200.5,489.5C 200.5,488.833 200.5,488.167 200.5,487.5C 201.167,484.833 201.833,482.167 202.5,479.5 Z"/></g>
<g><path style="opacity:1" fill="#745395" d="M 261.5,488.5 C 260.415,490.587 258.749,491.92 256.5,492.5C 257.585,490.413 259.251,489.08 261.5,488.5 Z"/></g>
<g><path style="opacity:1" fill="#cbb7df" d="M 307.5,488.5 C 307.834,491.491 306.834,493.824 304.5,495.5C 304.707,492.759 305.707,490.426 307.5,488.5 Z"/></g>
<g><path style="opacity:1" fill="#4e2479" d="M 256.5,492.5 C 254.721,494.546 253.054,496.713 251.5,499C 244.024,501.951 236.357,504.118 228.5,505.5C 232.456,503.251 236.789,501.751 241.5,501C 245.893,499.477 249.56,496.977 252.5,493.5C 253.833,493.167 255.167,492.833 256.5,492.5 Z"/></g>
<g><path style="opacity:1" fill="#66418d" d="M 382.5,495.5 C 381.246,500.753 377.913,503.42 372.5,503.5C 375.52,500.484 378.854,497.817 382.5,495.5 Z"/></g>
<g><path style="opacity:1" fill="#cab5dc" d="M 252.5,493.5 C 249.56,496.977 245.893,499.477 241.5,501C 236.789,501.751 232.456,503.251 228.5,505.5C 226.833,505.5 225.167,505.5 223.5,505.5C 224.808,504.768 226.142,503.934 227.5,503C 236.661,501.674 244.995,498.507 252.5,493.5 Z"/></g>
<g><path style="opacity:1" fill="#a284c2" d="M 301.5,501.5 C 302.122,503.335 303.456,504.502 305.5,505C 307.708,505.191 309.708,505.691 311.5,506.5C 308.059,506.699 304.726,506.199 301.5,505C 300.209,503.708 300.209,502.542 301.5,501.5 Z"/></g>
<g><path style="opacity:1" fill="#f2e3f9" d="M 365.5,504.5 C 361.982,506.966 357.982,507.966 353.5,507.5C 343.652,507.827 333.986,507.494 324.5,506.5C 338.233,506.819 351.9,506.152 365.5,504.5 Z"/></g>
<g><path style="opacity:1" fill="#c3abda" d="M 200.5,489.5 C 200.5,495.167 200.5,500.833 200.5,506.5C 206.167,506.5 211.833,506.5 217.5,506.5C 211.69,507.49 205.69,507.823 199.5,507.5C 199.5,507.167 199.5,506.833 199.5,506.5C 199.178,500.642 199.511,494.975 200.5,489.5 Z"/></g>
<g><path style="opacity:1" fill="#bda4d2" d="M 312.5,506.5 C 316.5,506.5 320.5,506.5 324.5,506.5C 333.986,507.494 343.652,507.827 353.5,507.5C 353.5,507.833 353.5,508.167 353.5,508.5C 342.162,508.667 330.828,508.5 319.5,508C 316.964,507.814 314.631,507.314 312.5,506.5 Z"/></g>
<g><path style="opacity:1" fill="#714e97" d="M 365.5,504.5 C 366.833,504.5 368.167,504.5 369.5,504.5C 364.806,507.925 359.473,509.258 353.5,508.5C 353.5,508.167 353.5,507.833 353.5,507.5C 357.982,507.966 361.982,506.966 365.5,504.5 Z"/></g>
<g><path style="opacity:1" fill="#532981" d="M 223.5,505.5 C 225.167,505.5 226.833,505.5 228.5,505.5C 228.389,506.117 228.056,506.617 227.5,507C 217.918,509.922 208.585,510.089 199.5,507.5C 205.69,507.823 211.69,507.49 217.5,506.5C 219.735,506.795 221.735,506.461 223.5,505.5 Z"/></g>
</svg>
